<mxfile host="app.diagrams.net" agent="Mozilla/5.0 (Windows NT 10.0; Win64; x64) AppleWebKit/537.36 (KHTML, like Gecko) Chrome/127.0.0.0 Safari/537.36" version="24.7.7">
  <diagram id="C5RBs43oDa-KdzZeNtuy" name="Page-1">
    <mxGraphModel dx="700" dy="379" grid="1" gridSize="10" guides="1" tooltips="1" connect="1" arrows="1" fold="1" page="1" pageScale="1" pageWidth="827" pageHeight="1169" math="0" shadow="0">
      <root>
        <mxCell id="WIyWlLk6GJQsqaUBKTNV-0" />
        <mxCell id="WIyWlLk6GJQsqaUBKTNV-1" parent="WIyWlLk6GJQsqaUBKTNV-0" />
        <mxCell id="WIyWlLk6GJQsqaUBKTNV-2" value="" style="rounded=0;html=1;jettySize=auto;orthogonalLoop=1;fontSize=11;endArrow=block;endFill=0;endSize=8;strokeWidth=1;shadow=0;labelBackgroundColor=none;edgeStyle=orthogonalEdgeStyle;entryX=0.5;entryY=0;entryDx=0;entryDy=0;" parent="WIyWlLk6GJQsqaUBKTNV-1" source="WIyWlLk6GJQsqaUBKTNV-3" target="xdZTZ2XUBs7tOMyX35qa-22" edge="1">
          <mxGeometry relative="1" as="geometry">
            <mxPoint x="408.9999999999999" y="140.00000000000023" as="targetPoint" />
            <Array as="points" />
          </mxGeometry>
        </mxCell>
        <mxCell id="WIyWlLk6GJQsqaUBKTNV-3" value="Start" style="rounded=1;whiteSpace=wrap;html=1;fontSize=12;glass=0;strokeWidth=1;shadow=0;" parent="WIyWlLk6GJQsqaUBKTNV-1" vertex="1">
          <mxGeometry x="349" y="80" width="120" height="40" as="geometry" />
        </mxCell>
        <mxCell id="xdZTZ2XUBs7tOMyX35qa-27" value="" style="edgeStyle=orthogonalEdgeStyle;rounded=0;orthogonalLoop=1;jettySize=auto;html=1;" edge="1" parent="WIyWlLk6GJQsqaUBKTNV-1" source="WIyWlLk6GJQsqaUBKTNV-11" target="xdZTZ2XUBs7tOMyX35qa-26">
          <mxGeometry relative="1" as="geometry" />
        </mxCell>
        <mxCell id="WIyWlLk6GJQsqaUBKTNV-11" value="Ask player to guess a letter from the word." style="rounded=1;whiteSpace=wrap;html=1;fontSize=12;glass=0;strokeWidth=1;shadow=0;" parent="WIyWlLk6GJQsqaUBKTNV-1" vertex="1">
          <mxGeometry x="349" y="310" width="120" height="40" as="geometry" />
        </mxCell>
        <mxCell id="xdZTZ2XUBs7tOMyX35qa-1" value="" style="endArrow=classic;html=1;rounded=0;exitX=1;exitY=0.5;exitDx=0;exitDy=0;entryX=0.54;entryY=0.05;entryDx=0;entryDy=0;entryPerimeter=0;" edge="1" parent="WIyWlLk6GJQsqaUBKTNV-1" source="xdZTZ2XUBs7tOMyX35qa-26" target="xdZTZ2XUBs7tOMyX35qa-3">
          <mxGeometry width="50" height="50" relative="1" as="geometry">
            <mxPoint x="469" y="410" as="sourcePoint" />
            <mxPoint x="509" y="460" as="targetPoint" />
            <Array as="points">
              <mxPoint x="524" y="410" />
            </Array>
          </mxGeometry>
        </mxCell>
        <mxCell id="xdZTZ2XUBs7tOMyX35qa-2" value="Show the correct letter in the corresponding blanks" style="rounded=1;whiteSpace=wrap;html=1;" vertex="1" parent="WIyWlLk6GJQsqaUBKTNV-1">
          <mxGeometry x="249" y="440" width="120" height="50" as="geometry" />
        </mxCell>
        <mxCell id="xdZTZ2XUBs7tOMyX35qa-21" value="" style="edgeStyle=orthogonalEdgeStyle;rounded=0;orthogonalLoop=1;jettySize=auto;html=1;" edge="1" parent="WIyWlLk6GJQsqaUBKTNV-1" source="xdZTZ2XUBs7tOMyX35qa-3" target="xdZTZ2XUBs7tOMyX35qa-20">
          <mxGeometry relative="1" as="geometry" />
        </mxCell>
        <mxCell id="xdZTZ2XUBs7tOMyX35qa-3" value="Lose a life" style="rounded=1;whiteSpace=wrap;html=1;" vertex="1" parent="WIyWlLk6GJQsqaUBKTNV-1">
          <mxGeometry x="459" y="440" width="120" height="50" as="geometry" />
        </mxCell>
        <mxCell id="xdZTZ2XUBs7tOMyX35qa-4" style="edgeStyle=orthogonalEdgeStyle;rounded=0;orthogonalLoop=1;jettySize=auto;html=1;exitX=0.75;exitY=0;exitDx=0;exitDy=0;entryX=0.855;entryY=0.006;entryDx=0;entryDy=0;entryPerimeter=0;" edge="1" parent="WIyWlLk6GJQsqaUBKTNV-1" source="xdZTZ2XUBs7tOMyX35qa-3" target="xdZTZ2XUBs7tOMyX35qa-3">
          <mxGeometry relative="1" as="geometry" />
        </mxCell>
        <mxCell id="xdZTZ2XUBs7tOMyX35qa-5" value="" style="endArrow=classic;html=1;rounded=0;exitX=0;exitY=0.5;exitDx=0;exitDy=0;entryX=0.5;entryY=0;entryDx=0;entryDy=0;" edge="1" parent="WIyWlLk6GJQsqaUBKTNV-1" source="xdZTZ2XUBs7tOMyX35qa-26" target="xdZTZ2XUBs7tOMyX35qa-2">
          <mxGeometry width="50" height="50" relative="1" as="geometry">
            <mxPoint x="479" y="410" as="sourcePoint" />
            <mxPoint x="559" y="452" as="targetPoint" />
            <Array as="points">
              <mxPoint x="309" y="410" />
            </Array>
          </mxGeometry>
        </mxCell>
        <mxCell id="xdZTZ2XUBs7tOMyX35qa-6" value="yes" style="rounded=0;whiteSpace=wrap;html=1;strokeColor=none;fillColor=none;" vertex="1" parent="WIyWlLk6GJQsqaUBKTNV-1">
          <mxGeometry x="279" y="400" width="30" height="20" as="geometry" />
        </mxCell>
        <mxCell id="xdZTZ2XUBs7tOMyX35qa-7" value="no" style="rounded=0;whiteSpace=wrap;html=1;strokeColor=none;fillColor=none;" vertex="1" parent="WIyWlLk6GJQsqaUBKTNV-1">
          <mxGeometry x="530" y="400" width="30" height="20" as="geometry" />
        </mxCell>
        <mxCell id="xdZTZ2XUBs7tOMyX35qa-12" value="" style="edgeStyle=orthogonalEdgeStyle;rounded=0;orthogonalLoop=1;jettySize=auto;html=1;exitX=0.5;exitY=1;exitDx=0;exitDy=0;entryX=0;entryY=0.5;entryDx=0;entryDy=0;" edge="1" parent="WIyWlLk6GJQsqaUBKTNV-1" source="xdZTZ2XUBs7tOMyX35qa-17" target="xdZTZ2XUBs7tOMyX35qa-34">
          <mxGeometry relative="1" as="geometry">
            <mxPoint x="309" y="550" as="sourcePoint" />
            <mxPoint x="309" y="655" as="targetPoint" />
          </mxGeometry>
        </mxCell>
        <mxCell id="xdZTZ2XUBs7tOMyX35qa-37" value="" style="edgeStyle=orthogonalEdgeStyle;rounded=0;orthogonalLoop=1;jettySize=auto;html=1;entryX=0;entryY=0.5;entryDx=0;entryDy=0;" edge="1" parent="WIyWlLk6GJQsqaUBKTNV-1" source="xdZTZ2XUBs7tOMyX35qa-17" target="WIyWlLk6GJQsqaUBKTNV-11">
          <mxGeometry relative="1" as="geometry">
            <mxPoint x="190" y="370" as="targetPoint" />
            <Array as="points">
              <mxPoint x="200" y="550" />
              <mxPoint x="200" y="330" />
            </Array>
          </mxGeometry>
        </mxCell>
        <mxCell id="xdZTZ2XUBs7tOMyX35qa-17" value="All letters guessed correctly?" style="rhombus;whiteSpace=wrap;html=1;" vertex="1" parent="WIyWlLk6GJQsqaUBKTNV-1">
          <mxGeometry x="249" y="510" width="121" height="80" as="geometry" />
        </mxCell>
        <mxCell id="xdZTZ2XUBs7tOMyX35qa-30" value="" style="edgeStyle=orthogonalEdgeStyle;rounded=0;orthogonalLoop=1;jettySize=auto;html=1;entryX=1;entryY=0.5;entryDx=0;entryDy=0;exitX=1;exitY=0.5;exitDx=0;exitDy=0;" edge="1" parent="WIyWlLk6GJQsqaUBKTNV-1" source="xdZTZ2XUBs7tOMyX35qa-20" target="WIyWlLk6GJQsqaUBKTNV-11">
          <mxGeometry relative="1" as="geometry">
            <mxPoint x="620" y="550" as="targetPoint" />
            <Array as="points">
              <mxPoint x="630" y="550" />
              <mxPoint x="630" y="330" />
            </Array>
          </mxGeometry>
        </mxCell>
        <mxCell id="xdZTZ2XUBs7tOMyX35qa-33" value="" style="edgeStyle=orthogonalEdgeStyle;rounded=0;orthogonalLoop=1;jettySize=auto;html=1;entryX=1;entryY=0.5;entryDx=0;entryDy=0;" edge="1" parent="WIyWlLk6GJQsqaUBKTNV-1" source="xdZTZ2XUBs7tOMyX35qa-20" target="xdZTZ2XUBs7tOMyX35qa-34">
          <mxGeometry relative="1" as="geometry">
            <mxPoint x="520" y="660" as="targetPoint" />
          </mxGeometry>
        </mxCell>
        <mxCell id="xdZTZ2XUBs7tOMyX35qa-20" value="Have they run out of lives?" style="rhombus;whiteSpace=wrap;html=1;rounded=0;shadow=0;" vertex="1" parent="WIyWlLk6GJQsqaUBKTNV-1">
          <mxGeometry x="448" y="510" width="142" height="80" as="geometry" />
        </mxCell>
        <mxCell id="xdZTZ2XUBs7tOMyX35qa-24" value="" style="edgeStyle=orthogonalEdgeStyle;rounded=0;orthogonalLoop=1;jettySize=auto;html=1;" edge="1" parent="WIyWlLk6GJQsqaUBKTNV-1" source="xdZTZ2XUBs7tOMyX35qa-22" target="xdZTZ2XUBs7tOMyX35qa-23">
          <mxGeometry relative="1" as="geometry" />
        </mxCell>
        <mxCell id="xdZTZ2XUBs7tOMyX35qa-22" value="Generate a word" style="rounded=1;whiteSpace=wrap;html=1;" vertex="1" parent="WIyWlLk6GJQsqaUBKTNV-1">
          <mxGeometry x="349" y="150" width="120" height="60" as="geometry" />
        </mxCell>
        <mxCell id="xdZTZ2XUBs7tOMyX35qa-25" value="" style="edgeStyle=orthogonalEdgeStyle;rounded=0;orthogonalLoop=1;jettySize=auto;html=1;entryX=0.5;entryY=0;entryDx=0;entryDy=0;" edge="1" parent="WIyWlLk6GJQsqaUBKTNV-1" source="xdZTZ2XUBs7tOMyX35qa-23" target="WIyWlLk6GJQsqaUBKTNV-11">
          <mxGeometry relative="1" as="geometry">
            <mxPoint x="520" y="310" as="targetPoint" />
          </mxGeometry>
        </mxCell>
        <mxCell id="xdZTZ2XUBs7tOMyX35qa-23" value="Create blanks that matches the length of word." style="rounded=1;whiteSpace=wrap;html=1;" vertex="1" parent="WIyWlLk6GJQsqaUBKTNV-1">
          <mxGeometry x="349" y="230" width="120" height="60" as="geometry" />
        </mxCell>
        <mxCell id="xdZTZ2XUBs7tOMyX35qa-26" value="Is the guessed letter correct?" style="rhombus;whiteSpace=wrap;html=1;rounded=0;glass=0;strokeWidth=1;shadow=0;" vertex="1" parent="WIyWlLk6GJQsqaUBKTNV-1">
          <mxGeometry x="368" y="370" width="80" height="80" as="geometry" />
        </mxCell>
        <mxCell id="xdZTZ2XUBs7tOMyX35qa-31" value="no" style="rounded=0;whiteSpace=wrap;html=1;strokeColor=none;fillColor=none;" vertex="1" parent="WIyWlLk6GJQsqaUBKTNV-1">
          <mxGeometry x="590" y="520" width="30" height="20" as="geometry" />
        </mxCell>
        <mxCell id="xdZTZ2XUBs7tOMyX35qa-34" value="Game Over" style="whiteSpace=wrap;html=1;sketch=0;pointerEvents=1;resizable=0;rounded=1;" vertex="1" parent="WIyWlLk6GJQsqaUBKTNV-1">
          <mxGeometry x="354" y="625" width="120" height="60" as="geometry" />
        </mxCell>
        <mxCell id="xdZTZ2XUBs7tOMyX35qa-38" value="yes" style="rounded=0;whiteSpace=wrap;html=1;strokeColor=none;fillColor=none;" vertex="1" parent="WIyWlLk6GJQsqaUBKTNV-1">
          <mxGeometry x="270" y="605" width="30" height="20" as="geometry" />
        </mxCell>
        <mxCell id="xdZTZ2XUBs7tOMyX35qa-39" value="no" style="rounded=0;whiteSpace=wrap;html=1;strokeColor=none;fillColor=none;" vertex="1" parent="WIyWlLk6GJQsqaUBKTNV-1">
          <mxGeometry x="210" y="520" width="30" height="20" as="geometry" />
        </mxCell>
        <mxCell id="xdZTZ2XUBs7tOMyX35qa-40" value="yes" style="rounded=0;whiteSpace=wrap;html=1;strokeColor=none;fillColor=none;" vertex="1" parent="WIyWlLk6GJQsqaUBKTNV-1">
          <mxGeometry x="530" y="605" width="30" height="20" as="geometry" />
        </mxCell>
      </root>
    </mxGraphModel>
  </diagram>
</mxfile>
